<svg xmlns="http://www.w3.org/2000/svg"  viewBox="0 0 64 64" width="64px" height="64px" baseProfile="basic"><ellipse cx="32" cy="61" opacity=".3" rx="23" ry="3"/><path fill="#98c900" d="M58,24l-12,8v17c0,1.105,0.895,2,2,2h4c3.314,0,6-2.686,6-6l0-20.999L58,24z"/><path fill="#37d0ee" d="M7,24l12,8v17c0,1.105-0.895,2-2,2h-4c-3.314,0-6-2.686-6-6l0-20.999L7,24z"/><path fill="#ffce29" d="M58,16.362c0-3.513-3.961-5.566-6.831-3.54L46,16.471V32l12-7.999L58,16.362z"/><path fill="#cd2e42" d="M7,16.362c0-3.513,3.961-5.566,6.831-3.54L19,16.471V32L7,24.001L7,16.362z"/><path fill="#fd3c4f" d="M32.5,26L19,16.47V32l10.763,7.175c1.658,1.105,3.818,1.105,5.476,0L46,32V16.471L32.5,26z"/><path d="M58,26.001v-1.966c-2.343,1.492-5,2.718-5,7.808L53,45c0,2.017,1.201,3.745,2.921,4.535 C57.192,48.435,58,46.813,58,45L58,26.001z" opacity=".15"/><path fill="#fff" d="M23.085,19.354L19,16.47v0l-5.169-3.649c-2.87-2.026-6.831,0.027-6.831,3.54l0,7.639 L7,35c0,0,0,0,0,0c2.762,0,5-2.239,5-5l0-10.42c0-0.811,0.914-1.285,1.577-0.817l2.541,1.793 C18.372,22.147,21.493,21.609,23.085,19.354z" opacity=".3"/><line x1="10.5" x2="10.5" y1="19.5" y2="22.5" fill="none" stroke="#fff" stroke-linecap="round" stroke-linejoin="round" stroke-miterlimit="10" stroke-width="3"/></svg>